<?xml version="1.0" standalone="no"?>
<!DOCTYPE svg PUBLIC "-//W3C//DTD SVG 20010904//EN"
 "http://www.w3.org/TR/2001/REC-SVG-20010904/DTD/svg10.dtd">
<svg version="1.0" xmlns="http://www.w3.org/2000/svg"
 width="700.000000pt" height="700.000000pt" viewBox="0 0 700.000000 700.000000"
 preserveAspectRatio="xMidYMid meet">
<metadata>
Created by potrace 1.14, written by Peter Selinger 2001-2017
</metadata>
<g transform="translate(0.000000,700.000000) scale(0.100000,-0.100000)"
fill="#000000" stroke="none">
<path d="M0 3500 l0 -3500 3500 0 3500 0 0 3500 0 3500 -3500 0 -3500 0 0
-3500z m3113 1869 c21 -6 55 -27 76 -48 74 -74 76 -183 6 -259 l-34 -37 788
-790 c841 -844 824 -825 865 -964 21 -70 21 -202 0 -272 -30 -101 -64 -150
-187 -277 l-121 -123 431 -432 c237 -238 438 -446 447 -464 9 -18 16 -53 16
-78 0 -123 -116 -213 -236 -184 -46 11 -73 36 -489 450 l-440 439 -115 -116
c-96 -96 -128 -122 -195 -155 -111 -55 -213 -69 -322 -46 -158 35 -112 -6
-983 863 -437 437 -800 794 -806 794 -6 0 -19 -9 -30 -21 -102 -112 -301 -50
-321 100 -12 90 -5 103 180 288 l171 172 -130 133 c-161 165 -179 197 -179
323 0 133 11 148 277 411 253 251 266 260 398 258 111 -1 150 -23 306 -176 72
-70 135 -128 140 -128 5 0 83 74 174 164 190 188 215 203 313 175z"/>
<path d="M2037 4802 c-70 -70 -127 -132 -127 -137 0 -6 38 -49 85 -95 l85 -85
135 135 135 135 -87 87 c-48 49 -90 88 -93 88 -3 0 -63 -57 -133 -128z"/>
<path d="M2482 4347 l-402 -402 777 -777 c624 -623 784 -777 811 -783 73 -15
80 -9 411 319 172 171 326 329 342 350 33 44 38 99 15 144 -8 15 -116 128
-240 252 l-225 224 -183 -181 c-188 -185 -212 -203 -289 -203 -40 0 -122 46
-148 85 -26 39 -37 105 -26 162 6 32 35 66 191 223 l184 186 -135 134 -135
135 -163 -162 c-89 -88 -176 -168 -194 -177 -97 -48 -226 10 -258 117 -30 100
-6 143 189 337 l156 155 -132 132 c-73 73 -135 133 -138 133 -3 0 -186 -181
-408 -403z"/>
</g>
</svg>
