<svg xmlns="http://www.w3.org/2000/svg" viewBox="0 0 256 256">
  <g>
    <rect width="256" height="256" style="fill: #2362a2"/>
    <path d="M107.37,60.84l-6.57,6.57-4.92,4.92-8.21-8.21a11.61,11.61,0,0,0-16.41,0L58.12,77.26a11.61,11.61,0,0,0,0,16.41l8.21,8.21-4.92,4.92-6.57,6.57a7,7,0,0,0,9.85,9.84l1.64-1.64,55.81,55.81a18.57,18.57,0,0,0,26.26,0l6.57-6.57L186.15,202a7,7,0,0,0,9.85-9.85L164.81,161l6.57-6.57a18.57,18.57,0,0,0,0-26.26L115.57,72.33l1.64-1.64a7,7,0,0,0-9.84-9.85ZM69.61,85.46l9.85-9.85L86,82.18,76.18,92Zm46,6.57-11.49,11.49a7,7,0,0,0,9.85,9.85l11.49-11.49,9.85,9.84-11.49,11.49a7,7,0,1,0,9.85,9.85l11.49-11.49L161.53,138a4.64,4.64,0,0,1,0,6.56l-23,23a4.64,4.64,0,0,1-6.56,0L76.18,111.72l29.54-29.54Z" style="fill: #fff"/>
    <polygon points="178 78 256 78 178 0 178 78" style="fill: #254e80"/>
    <polygon points="256 0 178 0 256 78 256 0" style="fill: #3077b7"/>
  </g>
</svg>
